<svg width="22" height="22" viewBox="0 0 22 22" fill="none" xmlns="http://www.w3.org/2000/svg">
<path fill-rule="evenodd" clip-rule="evenodd" d="M3.93647 19.4285C5.91619 21.0864 8.41663 21.9958 11.0003 21.996H11.0035C13.6086 21.9958 16.1291 21.0713 18.1165 19.387C18.5842 18.9898 19.0182 18.5547 19.4142 18.0861C20.7647 16.4833 21.6292 14.5281 21.9059 12.4505C22.1827 10.373 21.8602 8.25962 20.9764 6.35919C20.0926 4.45876 18.6842 2.85037 16.9171 1.72334C15.15 0.596313 13.0978 -0.00244141 11.0019 -0.00244141C8.90598 -0.00244141 6.8537 0.596313 5.08662 1.72334C3.31954 2.85037 1.91119 4.45876 1.02737 6.35919C0.14355 8.25962 -0.17896 10.373 0.0977983 12.4505C0.374557 14.5281 1.23906 16.4833 2.58956 18.0861C2.97237 18.5391 3.39072 18.9608 3.84062 19.3472C3.87 19.3771 3.90208 19.4043 3.93647 19.4285ZM4.9476 18.4795C6.65892 19.8633 8.79498 20.6204 11.0003 20.6204C13.2053 20.6204 15.3412 19.8635 17.0524 18.4799C17.2305 17.6418 17.2329 16.7749 17.0585 15.9342C16.8689 15.0203 16.4751 14.161 15.9067 13.4206C15.3383 12.6803 14.6098 12.0779 13.7758 11.6587C12.9419 11.2394 12.0239 11.0141 11.0906 10.9995H11.0308L10.9994 10.9997L10.9634 10.9995H10.9095C9.97618 11.0141 9.05822 11.2394 8.22424 11.6587C7.39026 12.0779 6.66183 12.6803 6.09339 13.4206C5.52494 14.161 5.1312 15.0203 4.94157 15.9342C4.76719 16.7747 4.76958 17.6415 4.9476 18.4795ZM3.44033 16.9539C3.45394 16.5179 3.50525 16.0827 3.59438 15.653C3.82617 14.5356 4.30773 13.4851 5.00296 12.5801C5.6982 11.6751 6.58911 10.9391 7.60904 10.4271C7.86861 10.2968 8.13482 10.1819 8.40629 10.0827C7.87225 9.65103 7.4528 9.09144 7.18851 8.45336C6.87631 7.69965 6.79461 6.87028 6.95377 6.07014C7.11293 5.26999 7.50579 4.53501 8.08266 3.95814C8.65953 3.38127 9.39451 2.98842 10.1946 2.82926C10.9948 2.6701 11.8242 2.75179 12.5779 3.06399C13.3316 3.37619 13.9758 3.90488 14.4291 4.58321C14.8823 5.26153 15.1242 6.05903 15.1242 6.87485C15.1229 7.96843 14.6879 9.01686 13.9147 9.79014C13.8113 9.89348 13.7031 9.99077 13.5905 10.0818C13.8628 10.1812 14.1299 10.2964 14.3902 10.4271C15.4102 10.9391 16.3011 11.6751 16.9963 12.5801C17.6916 13.4851 18.1731 14.5356 18.4049 15.653C18.4941 16.0829 18.5454 16.5184 18.559 16.9546C19.627 15.5998 20.3126 13.981 20.541 12.2671C20.7833 10.4492 20.5011 8.59999 19.7279 6.93705C18.9546 5.27411 17.7223 3.86669 16.1761 2.88046C14.6299 1.89423 12.8342 1.37024 11.0003 1.37017C9.16632 1.37024 7.37058 1.89504 5.8244 2.88127C4.27822 3.8675 3.04596 5.27491 2.27267 6.93785C1.49939 8.60079 1.21727 10.45 1.45952 12.2679C1.68784 13.9812 2.37296 15.5993 3.44033 16.9539ZM10.9261 9.62378H11.0725C11.4072 9.61487 11.7392 9.54486 12.0517 9.41543C12.5542 9.20729 12.9837 8.85483 13.2858 8.40261C13.588 7.95039 13.7493 7.41873 13.7493 6.87485C13.7484 6.14579 13.4584 5.44684 12.9429 4.93132C12.4274 4.4158 11.7284 4.1258 10.9994 4.12495C10.4555 4.12495 9.92382 4.28623 9.4716 4.58839C9.01938 4.89055 8.66691 5.32004 8.45878 5.82252C8.25065 6.32499 8.19621 6.8779 8.30232 7.41133C8.40842 7.94475 8.67032 8.43474 9.0549 8.81932C9.43948 9.2039 9.92947 9.46581 10.4629 9.57192C10.6163 9.60242 10.7712 9.61965 10.9261 9.62378Z" fill="white"/>
</svg>
