<svg width="18" height="22" viewBox="0 0 18 22" fill="none" xmlns="http://www.w3.org/2000/svg">
<path d="M17.8757 18.9323L16.6053 4.8978C16.5918 4.74862 16.5219 4.60979 16.4094 4.50854C16.2969 4.40729 16.1499 4.35094 15.9972 4.35056H13.3831C13.3831 3.21019 12.9213 2.11652 12.0992 1.31015C11.2771 0.503789 10.1622 0.0507812 8.99963 0.0507812C7.83707 0.0507812 6.72211 0.503789 5.90006 1.31015C5.07801 2.11652 4.61619 3.21019 4.61619 4.35056H2.00207C1.84917 4.35023 1.70176 4.40633 1.5891 4.50772C1.47644 4.6091 1.40677 4.74835 1.39396 4.8978L0.123566 18.9323C0.123566 18.9503 0.118774 18.9682 0.118774 18.9854C0.172342 19.8016 0.552381 20.5639 1.17616 21.1065C1.79993 21.6491 2.61696 21.9281 3.44941 21.8827H14.5483C15.3807 21.9279 16.1976 21.6488 16.8213 21.1063C17.445 20.5637 17.8251 19.8015 17.8789 18.9854C17.8796 18.9676 17.878 18.9497 17.8741 18.9323H17.8757ZM8.99963 1.31961C9.82532 1.32021 10.618 1.63764 11.2082 2.20403C11.7985 2.77042 12.1394 3.54083 12.1581 4.35056H5.84195C5.86069 3.54083 6.20161 2.77042 6.79183 2.20403C7.38205 1.63764 8.17474 1.32021 9.00043 1.31961H8.99963ZM14.5491 20.6819H3.45018C2.94746 20.724 2.44762 20.5738 2.05518 20.2627C1.66275 19.9516 1.40812 19.5038 1.34454 19.0128L2.56075 5.55684H4.6122V7.38151C4.61792 7.5371 4.68495 7.68444 4.79919 7.79253C4.91343 7.90062 5.06596 7.96102 5.22468 7.96102C5.3834 7.96102 5.53594 7.90062 5.65017 7.79253C5.76441 7.68444 5.83146 7.5371 5.83719 7.38151V5.55684H12.1541V7.38151C12.1598 7.5371 12.2269 7.68444 12.3411 7.79253C12.4553 7.90062 12.6079 7.96102 12.7666 7.96102C12.9253 7.96102 13.0779 7.90062 13.1921 7.79253C13.3063 7.68444 13.3734 7.5371 13.3791 7.38151V5.55684H15.4297L16.6507 19.0128C16.5864 19.5034 16.3316 19.9508 15.9393 20.2618C15.5471 20.5727 15.0476 20.7232 14.5451 20.6819H14.5491Z" fill="white" stroke="white" stroke-width="0.3"/>
</svg>
