<svg width="20" height="21" viewBox="0 0 20 21" fill="none" xmlns="http://www.w3.org/2000/svg">
<path d="M11.8337 2.51562C10.8115 2.51562 9.83116 2.942 9.10833 3.70093C8.38558 4.45987 7.97949 5.4892 7.97949 6.5625V8.81562H5.91699C5.81344 8.81562 5.72949 8.90374 5.72949 9.0125V11.9875C5.72949 12.0963 5.81344 12.1844 5.91699 12.1844H7.97949V18.2875C7.97949 18.3963 8.06344 18.4844 8.16699 18.4844H11.0003C11.1039 18.4844 11.1878 18.3963 11.1878 18.2875V12.1844H13.2686C13.3547 12.1844 13.4297 12.1229 13.4505 12.0353L14.1588 9.06028C14.1884 8.93603 14.0989 8.81562 13.9769 8.81562H11.1878V6.5625C11.1878 6.38265 11.2559 6.21016 11.377 6.08299C11.4981 5.95582 11.6624 5.88437 11.8337 5.88437H14.0003C14.1039 5.88437 14.1878 5.79623 14.1878 5.6875V2.7125C14.1878 2.60377 14.1039 2.51562 14.0003 2.51562H11.8337Z" fill="#1197C2"/>
</svg>
