<svg width="573" height="309" viewBox="0 0 573 309" fill="none" xmlns="http://www.w3.org/2000/svg">
<rect width="573" height="309" rx="8" fill="black"/>
<path d="M245.336 183.067C244.557 183.067 243.827 182.923 243.144 182.635C242.472 182.337 241.88 181.926 241.368 181.403C240.867 180.881 240.472 180.273 240.184 179.579C239.896 178.886 239.752 178.139 239.752 177.339C239.752 176.539 239.896 175.798 240.184 175.115C240.472 174.422 240.872 173.814 241.384 173.291C241.896 172.769 242.493 172.363 243.176 172.075C243.869 171.787 244.621 171.643 245.432 171.643C246.317 171.643 247.133 171.814 247.88 172.155C248.627 172.497 249.251 172.987 249.752 173.627L248.712 174.667C248.36 174.155 247.896 173.766 247.32 173.499C246.744 173.222 246.115 173.083 245.432 173.083C244.621 173.083 243.901 173.265 243.272 173.627C242.653 173.99 242.168 174.491 241.816 175.131C241.475 175.771 241.304 176.507 241.304 177.339C241.304 178.182 241.48 178.923 241.832 179.563C242.184 180.203 242.659 180.705 243.256 181.067C243.853 181.43 244.536 181.611 245.304 181.611C246.083 181.611 246.755 181.462 247.32 181.163C247.896 180.865 248.339 180.427 248.648 179.851C248.957 179.265 249.112 178.55 249.112 177.707L250.024 178.363H245.224V176.987H250.664V177.211C250.664 178.502 250.435 179.585 249.976 180.459C249.528 181.323 248.899 181.974 248.088 182.411C247.288 182.849 246.371 183.067 245.336 183.067ZM254.287 182.907V171.803H255.791V182.907H254.287ZM260.012 182.907V171.803H261.516V182.907H260.012ZM261.036 178.027V176.651H266.828V178.027H261.036ZM261.036 173.179V171.803H267.1V173.179H261.036ZM273.259 182.907V172.123H274.763V182.907H273.259ZM269.483 173.179V171.803H278.523V173.179H269.483ZM291.633 183.067C290.833 183.067 290.092 182.923 289.409 182.635C288.727 182.337 288.129 181.926 287.617 181.403C287.116 180.881 286.727 180.273 286.449 179.579C286.172 178.886 286.033 178.145 286.033 177.355C286.033 176.555 286.172 175.809 286.449 175.115C286.727 174.422 287.116 173.819 287.617 173.307C288.129 172.785 288.721 172.379 289.393 172.091C290.076 171.793 290.817 171.643 291.617 171.643C292.492 171.643 293.26 171.793 293.921 172.091C294.583 172.39 295.169 172.795 295.681 173.307L294.641 174.347C294.289 173.953 293.857 173.643 293.345 173.419C292.844 173.195 292.268 173.083 291.617 173.083C291.031 173.083 290.492 173.19 290.001 173.403C289.511 173.606 289.084 173.899 288.721 174.283C288.359 174.667 288.076 175.121 287.873 175.643C287.681 176.166 287.585 176.737 287.585 177.355C287.585 177.974 287.681 178.545 287.873 179.067C288.076 179.59 288.359 180.043 288.721 180.427C289.084 180.811 289.511 181.11 290.001 181.323C290.492 181.526 291.031 181.627 291.617 181.627C292.311 181.627 292.913 181.515 293.425 181.291C293.937 181.057 294.369 180.742 294.721 180.347L295.761 181.371C295.249 181.905 294.647 182.321 293.953 182.619C293.271 182.918 292.497 183.067 291.633 183.067ZM298.112 182.907L302.656 171.803H303.744L308.272 182.907H306.64L302.912 173.515H303.472L299.712 182.907H298.112ZM300.272 180.395V179.083H306.112V180.395H300.272ZM312.551 178.075V176.811H315.559C316.21 176.811 316.711 176.646 317.063 176.315C317.415 175.985 317.591 175.537 317.591 174.971C317.591 174.438 317.415 173.995 317.063 173.643C316.722 173.291 316.226 173.115 315.575 173.115H312.551V171.803H315.623C316.327 171.803 316.941 171.942 317.463 172.219C317.986 172.486 318.386 172.854 318.663 173.323C318.951 173.793 319.095 174.331 319.095 174.939C319.095 175.569 318.951 176.118 318.663 176.587C318.386 177.057 317.986 177.425 317.463 177.691C316.941 177.947 316.327 178.075 315.623 178.075H312.551ZM311.543 182.907V171.803H313.047V182.907H311.543ZM317.943 182.907L313.911 177.931L315.335 177.435L319.847 182.907H317.943ZM323.995 182.907V181.531H327.083C327.904 181.531 328.624 181.355 329.243 181.003C329.861 180.641 330.341 180.145 330.683 179.515C331.035 178.886 331.211 178.161 331.211 177.339C331.211 176.529 331.035 175.809 330.683 175.179C330.331 174.55 329.845 174.059 329.227 173.707C328.608 173.355 327.893 173.179 327.083 173.179H324.011V171.803H327.115C327.925 171.803 328.672 171.942 329.355 172.219C330.048 172.497 330.645 172.886 331.147 173.387C331.659 173.889 332.053 174.475 332.331 175.147C332.619 175.819 332.763 176.555 332.763 177.355C332.763 178.145 332.619 178.881 332.331 179.563C332.053 180.235 331.664 180.822 331.163 181.323C330.661 181.825 330.064 182.214 329.371 182.491C328.688 182.769 327.947 182.907 327.147 182.907H323.995ZM323.003 182.907V171.803H324.507V182.907H323.003Z" fill="#696969"/>
</svg>
