<svg width="57" height="54" viewBox="0 0 57 54" fill="none" xmlns="http://www.w3.org/2000/svg">
<path d="M56.0173 23.0612C56.2779 23.0612 56.5279 22.9647 56.7122 22.7929C56.8965 22.6212 57.0001 22.3882 57.0001 22.1454C57.0001 21.9025 56.8965 21.6695 56.7122 21.4978C56.5279 21.326 56.2779 21.2295 56.0173 21.2295H54.0517V13.9029H56.0173C56.2779 13.9029 56.5279 13.8064 56.7122 13.6347C56.8965 13.4629 57.0001 13.23 57.0001 12.9871C57.0001 12.7442 56.8965 12.5113 56.7122 12.3395C56.5279 12.1678 56.2779 12.0713 56.0173 12.0713H54.0517V3.82923C54.0518 3.70881 54.0265 3.58956 53.977 3.4783C53.9276 3.36704 53.8551 3.26595 53.7637 3.18084C53.6723 3.09573 53.5638 3.02826 53.4443 2.9823C53.3249 2.93634 53.1969 2.9128 53.0677 2.91301H44.2231V1.08135C44.2231 0.838461 44.1196 0.605517 43.9353 0.433767C43.751 0.262016 43.501 0.165527 43.2404 0.165527C42.9797 0.165527 42.7297 0.262016 42.5454 0.433767C42.3611 0.605517 42.2576 0.838461 42.2576 1.08135V2.91301H34.3971V1.08135C34.3971 0.838461 34.2936 0.605517 34.1093 0.433767C33.9249 0.262016 33.675 0.165527 33.4143 0.165527C33.1537 0.165527 32.9037 0.262016 32.7194 0.433767C32.5351 0.605517 32.4316 0.838461 32.4316 1.08135V2.91301H24.5694V1.08135C24.5694 0.838461 24.4658 0.605517 24.2815 0.433767C24.0972 0.262016 23.8472 0.165527 23.5866 0.165527C23.3259 0.165527 23.076 0.262016 22.8917 0.433767C22.7074 0.605517 22.6038 0.838461 22.6038 1.08135V2.91301H14.7416V1.08135C14.7416 0.838461 14.6381 0.605517 14.4538 0.433767C14.2695 0.262016 14.0195 0.165527 13.7588 0.165527C13.4982 0.165527 13.2482 0.262016 13.0639 0.433767C12.8796 0.605517 12.7761 0.838461 12.7761 1.08135V2.91301H3.93153C3.80238 2.9129 3.67448 2.93653 3.55514 2.98253C3.4358 3.02854 3.32737 3.09603 3.23604 3.18113C3.14472 3.26623 3.07231 3.36727 3.02293 3.47848C2.97356 3.58969 2.94821 3.70888 2.94832 3.82923V12.0713H0.982774C0.722126 12.0713 0.472154 12.1678 0.287848 12.3395C0.103542 12.5113 0 12.7442 0 12.9871C0 13.23 0.103542 13.4629 0.287848 13.6347C0.472154 13.8064 0.722126 13.9029 0.982774 13.9029H2.94832V21.2295H0.982774C0.722126 21.2295 0.472154 21.326 0.287848 21.4978C0.103542 21.6695 0 21.9025 0 22.1454C0 22.3882 0.103542 22.6212 0.287848 22.7929C0.472154 22.9647 0.722126 23.0612 0.982774 23.0612H2.94832V30.3878H0.982774C0.722126 30.3878 0.472154 30.4843 0.287848 30.656C0.103542 30.8278 0 31.0607 0 31.3036C0 31.5465 0.103542 31.7795 0.287848 31.9512C0.472154 32.123 0.722126 32.2194 0.982774 32.2194H2.94832V39.5461H0.982774C0.722126 39.5461 0.472154 39.6425 0.287848 39.8143C0.103542 39.986 0 40.219 0 40.4619C0 40.7048 0.103542 40.9377 0.287848 41.1095C0.472154 41.2812 0.722126 41.3777 0.982774 41.3777H2.94832V49.6181C2.94832 49.8609 3.05182 50.0938 3.23605 50.2654C3.42027 50.4371 3.67013 50.5336 3.93067 50.5336H12.7752V52.3652C12.7752 52.6081 12.8787 52.8411 13.0631 53.0128C13.2474 53.1846 13.4973 53.281 13.758 53.281C14.0186 53.281 14.2686 53.1846 14.4529 53.0128C14.6372 52.8411 14.7408 52.6081 14.7408 52.3652V50.536H22.603V52.3676C22.603 52.6105 22.7065 52.8435 22.8908 53.0152C23.0751 53.187 23.3251 53.2834 23.5857 53.2834C23.8464 53.2834 24.0963 53.187 24.2807 53.0152C24.465 52.8435 24.5685 52.6105 24.5685 52.3676V50.536H32.4307V52.3676C32.4307 52.6105 32.5342 52.8435 32.7185 53.0152C32.9029 53.187 33.1528 53.2834 33.4135 53.2834C33.6741 53.2834 33.9241 53.187 34.1084 53.0152C34.2927 52.8435 34.3962 52.6105 34.3962 52.3676V50.536H42.2584V52.3676C42.2584 52.6105 42.362 52.8435 42.5463 53.0152C42.7306 53.187 42.9806 53.2834 43.2412 53.2834C43.5019 53.2834 43.7518 53.187 43.9361 53.0152C44.1204 52.8435 44.224 52.6105 44.224 52.3676V50.536H53.0677C53.197 50.5362 53.3252 50.5126 53.4447 50.4665C53.5643 50.4205 53.6729 50.3528 53.7643 50.2676C53.8558 50.1823 53.9282 50.081 53.9775 49.9696C54.0269 49.8581 54.0521 49.7387 54.0517 49.6181V41.3761H56.0173C56.2779 41.3761 56.5279 41.2796 56.7122 41.1079C56.8965 40.9361 57.0001 40.7032 57.0001 40.4603C57.0001 40.2174 56.8965 39.9844 56.7122 39.8127C56.5279 39.6409 56.2779 39.5444 56.0173 39.5444H54.0517V32.2194H56.0173C56.2779 32.2194 56.5279 32.123 56.7122 31.9512C56.8965 31.7795 57.0001 31.5465 57.0001 31.3036C57.0001 31.0607 56.8965 30.8278 56.7122 30.656C56.5279 30.4843 56.2779 30.3878 56.0173 30.3878H54.0517V23.0612H56.0173ZM52.0862 30.3878H50.1215C49.8608 30.3878 49.6109 30.4843 49.4266 30.656C49.2423 30.8278 49.1387 31.0607 49.1387 31.3036C49.1387 31.5465 49.2423 31.7795 49.4266 31.9512C49.6109 32.123 49.8608 32.2194 50.1215 32.2194H52.087V39.5461H50.1215C49.8608 39.5461 49.6109 39.6425 49.4266 39.8143C49.2423 39.986 49.1387 40.219 49.1387 40.4619C49.1387 40.7048 49.2423 40.9377 49.4266 41.1095C49.6109 41.2812 49.8608 41.3777 50.1215 41.3777H52.087V48.7043H44.2231V46.8727C44.2231 46.6298 44.1196 46.3968 43.9353 46.2251C43.751 46.0533 43.501 45.9568 43.2404 45.9568C42.9797 45.9568 42.7297 46.0533 42.5454 46.2251C42.3611 46.3968 42.2576 46.6298 42.2576 46.8727V48.7043H34.3971V46.8727C34.3971 46.6298 34.2936 46.3968 34.1093 46.2251C33.9249 46.0533 33.675 45.9568 33.4143 45.9568C33.1537 45.9568 32.9037 46.0533 32.7194 46.2251C32.5351 46.3968 32.4316 46.6298 32.4316 46.8727V48.7043H24.5694V46.8727C24.5694 46.6298 24.4658 46.3968 24.2815 46.2251C24.0972 46.0533 23.8472 45.9568 23.5866 45.9568C23.3259 45.9568 23.076 46.0533 22.8917 46.2251C22.7074 46.3968 22.6038 46.6298 22.6038 46.8727V48.7043H14.7416V46.8727C14.7416 46.6298 14.6381 46.3968 14.4538 46.2251C14.2695 46.0533 14.0195 45.9568 13.7588 45.9568C13.4982 45.9568 13.2482 46.0533 13.0639 46.2251C12.8796 46.3968 12.7761 46.6298 12.7761 46.8727V48.7043H4.91387V41.3761H6.87942C7.14007 41.3761 7.39004 41.2796 7.57435 41.1079C7.75865 40.9361 7.8622 40.7032 7.8622 40.4603C7.8622 40.2174 7.75865 39.9844 7.57435 39.8127C7.39004 39.6409 7.14007 39.5444 6.87942 39.5444H4.91387V32.2194H6.87942C7.14007 32.2194 7.39004 32.123 7.57435 31.9512C7.75865 31.7795 7.8622 31.5465 7.8622 31.3036C7.8622 31.0607 7.75865 30.8278 7.57435 30.656C7.39004 30.4843 7.14007 30.3878 6.87942 30.3878H4.91387V23.0612H6.87942C7.14007 23.0612 7.39004 22.9647 7.57435 22.7929C7.75865 22.6212 7.8622 22.3882 7.8622 22.1454C7.8622 21.9025 7.75865 21.6695 7.57435 21.4978C7.39004 21.326 7.14007 21.2295 6.87942 21.2295H4.91387V13.9029H6.87942C7.14007 13.9029 7.39004 13.8064 7.57435 13.6347C7.75865 13.4629 7.8622 13.23 7.8622 12.9871C7.8622 12.7442 7.75865 12.5113 7.57435 12.3395C7.39004 12.1678 7.14007 12.0713 6.87942 12.0713H4.91387V4.74466H12.7761V6.57631C12.7761 6.8192 12.8796 7.05215 13.0639 7.2239C13.2482 7.39565 13.4982 7.49214 13.7588 7.49214C14.0195 7.49214 14.2695 7.39565 14.4538 7.2239C14.6381 7.05215 14.7416 6.8192 14.7416 6.57631V4.74466H22.6038V6.57631C22.6038 6.8192 22.7074 7.05215 22.8917 7.2239C23.076 7.39565 23.3259 7.49214 23.5866 7.49214C23.8472 7.49214 24.0972 7.39565 24.2815 7.2239C24.4658 7.05215 24.5694 6.8192 24.5694 6.57631V4.74466H32.4316V6.57631C32.4316 6.8192 32.5351 7.05215 32.7194 7.2239C32.9037 7.39565 33.1537 7.49214 33.4143 7.49214C33.675 7.49214 33.9249 7.39565 34.1093 7.2239C34.2936 7.05215 34.3971 6.8192 34.3971 6.57631V4.74466H42.2593V6.57631C42.2593 6.8192 42.3628 7.05215 42.5471 7.2239C42.7315 7.39565 42.9814 7.49214 43.2421 7.49214C43.5027 7.49214 43.7527 7.39565 43.937 7.2239C44.1213 7.05215 44.2248 6.8192 44.2248 6.57631V4.74466H52.087V12.0713H50.1215C49.8608 12.0713 49.6109 12.1678 49.4266 12.3395C49.2423 12.5113 49.1387 12.7442 49.1387 12.9871C49.1387 13.23 49.2423 13.4629 49.4266 13.6347C49.6109 13.8064 49.8608 13.9029 50.1215 13.9029H52.087V21.2295H50.1215C49.8608 21.2295 49.6109 21.326 49.4266 21.4978C49.2423 21.6695 49.1387 21.9025 49.1387 22.1454C49.1387 22.3882 49.2423 22.6212 49.4266 22.7929C49.6109 22.9647 49.8608 23.0612 50.1215 23.0612H52.087L52.0862 30.3878Z" fill="white"/>
<path d="M34.8241 13.9033C32.3754 13.9023 30.0188 14.7731 28.2362 16.3375C26.8676 15.1386 25.1524 14.3392 23.3022 14.0377C21.4519 13.7363 19.5474 13.946 17.8235 14.6411C16.0996 15.3361 14.6317 16.4861 13.6007 17.9493C12.5697 19.4124 12.0207 21.1248 12.0215 22.8751C12.0215 32.9184 27.1542 40.0666 27.7982 40.365C27.9344 40.4286 28.0847 40.4617 28.237 40.4617C28.3894 40.4617 28.5396 40.4286 28.6758 40.365C29.3198 40.0666 44.4526 32.9184 44.4526 22.8751C44.4496 20.4964 43.4342 18.2158 41.6291 16.5339C39.8241 14.8519 37.3767 13.9059 34.8241 13.9033Z" fill="white"/>
</svg>
