<svg width="21" height="21" viewBox="0 0 21 21" fill="none" xmlns="http://www.w3.org/2000/svg">
<path fill-rule="evenodd" clip-rule="evenodd" d="M6.44759 0.832134C7.51426 0.784064 7.85509 0.772461 10.5709 0.772461C13.2868 0.772461 13.6276 0.784064 14.6943 0.832134C16.3193 0.905896 17.7468 1.30206 18.8926 2.44165C20.0384 3.58123 20.4368 5.00095 20.5109 6.61709C20.5593 7.67795 20.5709 8.01692 20.5709 10.718C20.5709 13.419 20.5593 13.758 20.5109 14.8188C20.4368 16.435 20.0384 17.8547 18.8926 18.9943C17.7468 20.1338 16.3193 20.53 14.6943 20.6038C13.6276 20.6518 13.2868 20.6634 10.5709 20.6634C7.85509 20.6634 7.51426 20.6518 6.44759 20.6038C4.82259 20.53 3.39509 20.1338 2.24926 18.9943C1.10342 17.8547 0.70509 16.435 0.630923 14.8188C0.58259 13.758 0.570923 13.419 0.570923 10.718C0.570923 8.01692 0.58259 7.67795 0.630923 6.61709C0.70509 5.00095 1.10342 3.58123 2.24926 2.44165C3.39509 1.30206 4.82259 0.905896 6.44759 0.832134ZM14.6109 2.62247C13.5567 2.5744 13.24 2.56445 10.57 2.56445C7.90004 2.56445 7.58337 2.5744 6.5292 2.62247C5.39087 2.67385 4.33504 2.90094 3.52254 3.70901C2.71004 4.51708 2.4817 5.56716 2.43004 6.69929C2.3817 7.74771 2.3717 8.06265 2.3717 10.7181C2.3717 13.3735 2.3817 13.6885 2.43004 14.7369C2.4817 15.869 2.71004 16.9191 3.52254 17.7272C4.33504 18.5353 5.39087 18.7623 6.5292 18.8137C7.58337 18.8618 7.90004 18.8717 10.57 18.8717C13.24 18.8717 13.5567 18.8618 14.6109 18.8137C15.7492 18.7623 16.805 18.5353 17.6175 17.7272C18.43 16.9191 18.6584 15.869 18.71 14.7369C18.7584 13.6885 18.7684 13.3735 18.7684 10.7181C18.7684 8.06265 18.7584 7.74771 18.71 6.69929C18.6584 5.56716 18.43 4.51708 17.6175 3.70901C16.805 2.90094 15.7492 2.67385 14.6109 2.62247ZM5.4342 10.7174C5.4342 7.89699 7.73337 5.61035 10.5692 5.61035C13.405 5.61035 15.7042 7.89699 15.7042 10.7174C15.7042 13.5377 13.405 15.8244 10.5692 15.8244C7.73337 15.8244 5.4342 13.5377 5.4342 10.7174ZM7.23499 10.7175C7.23499 12.5483 8.72748 14.0327 10.5683 14.0327C12.4091 14.0327 13.9016 12.5483 13.9016 10.7175C13.9016 8.88671 12.4091 7.40234 10.5683 7.40234C8.72748 7.40234 7.23499 8.88671 7.23499 10.7175ZM17.1076 5.40928C17.1076 6.06841 16.5704 6.60274 15.9076 6.60274C15.2449 6.60274 14.7076 6.06841 14.7076 5.40928C14.7076 4.75015 15.2449 4.21582 15.9076 4.21582C16.5704 4.21582 17.1076 4.75015 17.1076 5.40928Z" fill="white"/>
</svg>
