<svg width="21" height="19" viewBox="0 0 21 19" fill="none" xmlns="http://www.w3.org/2000/svg">
<path d="M4.15625 1.48438C3.12934 1.48438 2.29688 2.23756 2.29688 3.16667C2.29688 4.09577 3.12934 4.84896 4.15625 4.84896C5.18315 4.84896 6.01562 4.09577 6.01562 3.16667C6.01562 2.23756 5.18315 1.48438 4.15625 1.48438Z" fill="#1197C2"/>
<path d="M2.40625 6.23438C2.34584 6.23438 2.29688 6.27868 2.29688 6.33333V16.625C2.29688 16.6796 2.34584 16.724 2.40625 16.724H5.90625C5.96666 16.724 6.01562 16.6796 6.01562 16.625V6.33333C6.01562 6.27868 5.96666 6.23438 5.90625 6.23438H2.40625Z" fill="#1197C2"/>
<path d="M8.09375 6.23438C8.03334 6.23438 7.98438 6.27868 7.98438 6.33333V16.625C7.98438 16.6796 8.03334 16.724 8.09375 16.724H11.5938C11.6541 16.724 11.7031 16.6796 11.7031 16.625V11.0833C11.7031 10.6896 11.8759 10.3121 12.1837 10.0337C12.4913 9.75531 12.9086 9.59896 13.3438 9.59896C13.7789 9.59896 14.1962 9.75531 14.5038 10.0337C14.8116 10.3121 14.9844 10.6896 14.9844 11.0833V16.625C14.9844 16.6796 15.0334 16.724 15.0938 16.724H18.5938C18.6541 16.724 18.7031 16.6796 18.7031 16.625V9.80099C18.7031 7.87985 16.8563 6.37687 14.7436 6.55065C14.0921 6.60423 13.4479 6.75079 12.8463 6.98404L11.7031 7.42731V6.33333C11.7031 6.27868 11.6541 6.23438 11.5938 6.23438H8.09375Z" fill="#1197C2"/>
</svg>
