<svg width="14" height="15" viewBox="0 0 14 15" fill="none" xmlns="http://www.w3.org/2000/svg">
<g clip-path="url(#clip0_1014_12414)">
<path d="M0 7.29C0 3.38837 3.05638 0.5 7 0.5C10.9436 0.5 14 3.38837 14 7.29C14 11.1916 10.9436 14.08 7 14.08C6.29125 14.08 5.61225 13.9864 4.9735 13.8114C4.84964 13.7769 4.7177 13.7862 4.59987 13.8376L3.21037 14.4519C3.12646 14.4889 3.03473 14.5047 2.94325 14.498C2.85178 14.4913 2.76336 14.4622 2.68576 14.4133C2.60817 14.3644 2.54378 14.2971 2.49824 14.2175C2.45271 14.1379 2.42743 14.0483 2.42462 13.9566L2.38613 12.7115C2.38347 12.6357 2.36542 12.5613 2.33307 12.4927C2.30073 12.4241 2.25478 12.3628 2.198 12.3125C0.8365 11.0945 0 9.3305 0 7.29ZM4.85275 6.01337L2.7965 9.27537C2.59963 9.58862 2.98375 9.94125 3.27863 9.71812L5.488 8.04163C5.56067 7.98643 5.64933 7.95641 5.74058 7.95609C5.83183 7.95577 5.9207 7.98519 5.99375 8.03987L7.62912 9.26662C7.74516 9.35364 7.87796 9.41567 8.01916 9.44881C8.16036 9.48195 8.30689 9.48548 8.44952 9.45917C8.59215 9.43286 8.72779 9.37729 8.84787 9.29596C8.96796 9.21463 9.06989 9.10931 9.14725 8.98662L11.2035 5.72462C11.4012 5.41138 11.0163 5.05875 10.7214 5.28187L8.512 6.95837C8.43933 7.01357 8.35067 7.04359 8.25942 7.04391C8.16817 7.04422 8.0793 7.01481 8.00625 6.96012L6.37088 5.7325C6.25484 5.64549 6.12204 5.58345 5.98084 5.55031C5.83964 5.51718 5.69311 5.51365 5.55048 5.53995C5.40785 5.56626 5.27222 5.62183 5.15213 5.70316C5.03204 5.78449 4.93011 5.88982 4.85275 6.0125V6.01337Z" fill="#1197C2"/>
</g>
<defs>
<clipPath id="clip0_1014_12414">
<rect width="14" height="14" fill="white" transform="translate(0 0.5)"/>
</clipPath>
</defs>
</svg>
