<svg width="56" height="52" viewBox="0 0 56 52" fill="none" xmlns="http://www.w3.org/2000/svg">
<path fill-rule="evenodd" clip-rule="evenodd" d="M55.0543 6.13503C54.5661 4.72279 53.9122 3.3629 53.1041 2.07909C53.0129 1.94613 52.8791 1.84206 52.7209 1.78102C52.5627 1.71999 52.3877 1.70495 52.2198 1.73795C50.6491 2.10307 49.1263 2.62225 47.6778 3.28645C44.4563 4.75633 42.2059 6.71827 41.1693 8.95926C40.2902 11.0931 40.1591 13.4239 40.7943 15.6288C39.502 14.3085 38.0344 13.1411 36.4251 12.1537C35.3623 10.2661 34.0896 8.48339 32.6273 6.83382C32.5323 6.73484 32.4111 6.66134 32.2769 6.61929L29.5966 4.10387C29.5559 3.96487 29.4719 3.83842 29.3532 3.74077C27.3256 2.08021 24.8619 0.927681 22.2021 0.395409C18.4472 -0.275864 14.067 0.605278 9.53524 2.9453C7.48336 4.00037 5.56197 5.25452 3.8044 6.68604C3.6567 6.81863 3.56563 6.99514 3.54781 7.18369C3.52999 7.37224 3.58651 7.56039 3.70724 7.71418C4.73202 9.58193 5.96371 11.3487 7.38302 12.9869C8.52535 14.3243 9.82332 15.5443 11.254 16.6255C10.872 16.9179 10.5011 17.2244 10.1408 17.5451C7.89327 19.5553 6.2286 22.045 5.29696 24.7897C4.36519 27.5345 4.19588 30.448 4.80404 33.2675C5.41219 36.0869 6.77889 38.7238 8.78072 40.9402C10.2208 42.5346 11.9569 43.8753 13.9027 44.9045C13.9504 44.9696 14.009 45.0276 14.0767 45.0764C14.1125 45.1021 14.1507 45.1253 14.1911 45.1455C16.655 46.3704 19.3846 47.0831 22.1848 47.2325C24.9851 47.382 27.7868 46.9646 30.3901 46.0102C31.5687 45.5785 32.6872 45.0424 33.7326 44.4136C34.7729 43.7962 35.7476 43.0856 36.6419 42.2903C38.6704 40.4774 40.2271 38.2712 41.197 35.8346C42.167 33.3981 42.5251 30.7935 42.2452 28.2135C41.9654 25.6334 41.0545 23.1438 39.58 20.9286C38.1055 18.7135 36.1052 16.8295 33.7266 15.4157C34.8097 14.7083 35.6191 14.0999 36.0638 13.7462C39.221 15.8096 41.7169 18.607 43.2926 21.8485C44.8684 25.09 45.4666 28.6576 45.0255 32.1815C44.5843 35.7054 43.1197 39.0574 40.7835 41.89C38.4475 44.7225 35.3247 46.9327 31.7391 48.2913C28.1535 49.6499 24.2354 50.1075 20.3912 49.6167C16.5468 49.1259 12.9161 47.7046 9.87533 45.5C6.83455 43.2954 4.49434 40.3878 3.09737 37.0786C1.70028 33.7694 1.2972 30.1791 1.93001 26.6796C1.95943 26.4861 1.90499 26.2897 1.77816 26.1324C1.65145 25.9751 1.46236 25.8692 1.25142 25.8374C1.04037 25.8056 0.824179 25.8504 0.648886 25.9622C0.473471 26.0741 0.352865 26.244 0.312826 26.436C-0.187906 29.2056 -0.0867101 32.0383 0.610678 34.7722C1.30807 37.5061 2.58797 40.0877 4.37728 42.3696C6.16659 44.6515 8.43026 46.589 11.0391 48.0715C13.6479 49.554 16.5507 50.5524 19.5819 51.0098C20.8586 51.2025 22.1504 51.2995 23.4443 51.2998C28.9797 51.2864 34.3308 49.481 38.5474 46.2042C42.7641 42.9274 45.5736 38.3912 46.4769 33.401C47.2238 29.3375 46.6605 25.1632 44.8554 21.3873C46.1555 21.034 47.4198 20.579 48.6344 20.0274C51.8551 18.5575 54.1063 16.5956 55.142 14.3538C56.1777 12.112 56.1502 9.26974 55.056 6.13503H55.0543ZM28.4531 4.97418C28.3953 4.94912 28.3405 4.91779 28.29 4.88052C26.476 3.38781 24.2703 2.34911 21.8873 1.8653C21.2067 1.74477 20.5158 1.68032 19.8227 1.67271L26.9128 10.5156L34.3786 11.8456C33.5454 10.4986 32.5993 9.21271 31.5492 7.9993L28.3877 5.03236L28.4531 4.97418ZM21.2307 45.6491C19.8252 45.4953 18.447 45.1856 17.1264 44.7278C17.0581 44.6649 16.9774 44.613 16.8877 44.5753C15.6339 44.11 14.4441 43.5119 13.3426 42.7933C13.6921 40.7351 13.1964 38.6315 11.9508 36.8871C11.6927 36.5176 12.467 35.065 12.9315 34.1973C13.4336 33.3417 13.8372 32.4408 14.1358 31.509C14.2724 31.1054 14.2692 30.673 14.1264 30.2711C13.9837 29.8692 13.7085 29.5175 13.3383 29.2641C12.7448 28.8989 12.0852 28.6328 11.39 28.4781C11.0153 28.3962 10.655 28.2673 10.3189 28.0953C9.76656 27.4615 9.30062 26.7686 8.93136 26.0319C8.51888 25.236 8.01754 24.4811 7.43551 23.7792C8.56685 21.3422 10.3452 19.2015 12.6097 17.5506C14.6488 18.8687 17.0294 19.6769 19.5157 19.8954C16.6192 21.9461 15.6825 24.5644 17.021 27.0805C18.5847 30.0175 21.8037 29.5488 24.6429 29.1354L24.6444 29.1352C25.1355 29.0637 25.6447 28.9898 26.1308 28.934C26.3121 28.913 26.367 28.9574 26.4041 28.9872L26.4052 28.9882C27.024 29.4911 27.0077 31.883 26.9957 33.6436L26.9953 33.6706C26.9773 36.1073 26.96 38.4128 27.9544 39.595C28.1934 39.8854 28.5048 40.1195 28.8628 40.2779C29.2205 40.4364 29.6146 40.5146 30.0122 40.506C30.5708 40.4955 31.1212 40.3816 31.6302 40.1711C34.1025 39.2035 36.6721 36.2928 36.2797 33.989C35.9356 31.9751 35.7103 30.6444 36.2453 29.5722C36.7399 28.5795 37.934 27.6606 40.2884 26.4878C40.8851 28.9438 40.8319 31.4944 40.1333 33.9278C39.8088 35.0581 39.3494 36.148 38.7662 37.1787L38.6836 37.19C37.0084 40.1876 34.3286 42.6034 31.0543 44.0957C30.5673 44.3154 30.0683 44.5145 29.5587 44.6921C26.9862 45.5885 24.2168 45.9111 21.4804 45.6333C21.396 45.6268 21.3118 45.6323 21.2307 45.6491ZM47.1401 12.0106L44.8106 6.85268C45.8802 5.96577 47.0815 5.22137 48.3789 4.64157C49.2177 4.25892 50.0826 3.926 50.9682 3.64487L47.1401 12.0106ZM52.4804 4.2289C52.8779 5.00642 53.2204 5.80641 53.5058 6.62395C53.922 7.79324 54.1715 9.00665 54.2482 10.2342L48.7893 12.292L52.4804 4.2289ZM42.679 9.5425C42.9205 9.02682 43.2277 8.53899 43.5943 8.08912L46.2464 13.96L43.8662 19.1557C43.4525 18.3559 43.0976 17.5319 42.8038 16.6891C42.1336 14.7531 41.5684 11.9407 42.679 9.53621V9.5425ZM47.9263 18.6715C47.1132 19.0424 46.2755 19.3664 45.4179 19.6415L47.8868 14.2477L54.1726 11.8778C54.0863 12.5283 53.9036 13.165 53.6297 13.7706C52.5191 16.1719 49.9178 17.7613 47.9316 18.6715H47.9263ZM18.3715 18.2455C18.0816 18.1936 17.7961 18.1307 17.5113 18.0584L26.5825 11.9823L34.0518 13.3123C31.3309 15.2711 24.7088 19.3805 18.3681 18.2447L18.3715 18.2455ZM10.0815 13.5599C8.4786 11.9537 7.07723 10.1889 5.9034 8.2982L15.4089 9.9921L10.0815 13.5599ZM11.7598 3.56785L15.7367 8.52458L6.17013 6.82046C7.90706 5.56406 9.78072 4.47413 11.7598 3.56785ZM18.1084 8.94668L13.2911 2.93745C14.7569 2.37251 16.2966 1.98333 17.8718 1.77962L24.542 10.0919L18.1084 8.94668ZM17.5982 10.382L24.394 11.5925L15.6756 17.4359C14.0479 16.7227 12.5553 15.7768 11.254 14.6336L17.5982 10.382Z" fill="white"/>
</svg>
