<svg width="19" height="19" viewBox="0 0 19 19" fill="none" xmlns="http://www.w3.org/2000/svg">
<path d="M17.2657 4.92998C17.3116 4.86604 17.2438 4.78347 17.1704 4.81192C16.649 5.01405 16.1039 5.15043 15.548 5.21764C16.167 4.84784 16.6447 4.2849 16.9096 3.61842C16.9365 3.55052 16.8624 3.4899 16.7984 3.52521C16.2231 3.84294 15.6026 4.07173 14.9581 4.20349C14.9311 4.20901 14.9033 4.19982 14.8844 4.17984C14.4007 3.66947 13.764 3.32966 13.0699 3.21223C12.3612 3.09234 11.6328 3.21105 10.9989 3.54975C10.3649 3.88845 9.86137 4.42798 9.56711 5.08372C9.28733 5.70721 9.21189 6.40222 9.34987 7.06969C9.36056 7.12148 9.32003 7.17037 9.26722 7.16709C8.01322 7.08921 6.78793 6.75566 5.66692 6.18653C4.54876 5.61885 3.5586 4.82911 2.75675 3.86603C2.72116 3.82328 2.65371 3.82881 2.62778 3.87802C2.37827 4.35148 2.24763 4.87921 2.24799 5.41556C2.24698 5.94944 2.37799 6.4753 2.62938 6.94629C2.88076 7.41729 3.24471 7.81883 3.68882 8.11514C3.21784 8.10231 2.75604 7.98586 2.33606 7.77478C2.28194 7.74758 2.21701 7.78631 2.21983 7.84682C2.25258 8.55079 2.51102 9.25751 2.95836 9.79981C3.43441 10.3768 4.09515 10.7717 4.82882 10.9176C4.5464 11.0036 4.25318 11.0489 3.95799 11.0522C3.79733 11.0503 3.63698 11.0385 3.47787 11.0168C3.41887 11.0087 3.37071 11.0647 3.39135 11.1205C3.61019 11.7123 3.99677 12.2287 4.50509 12.6056C5.04853 13.0086 5.70407 13.2322 6.38049 13.2451C5.23827 14.1439 3.82806 14.6344 2.37466 14.6385C2.22531 14.6389 2.07603 14.6341 1.92711 14.624C1.84319 14.6183 1.80459 14.7301 1.87693 14.773C3.29304 15.6134 4.91162 16.0575 6.56257 16.0556C7.7815 16.0682 8.99069 15.8378 10.1196 15.378C11.2485 14.918 12.2744 14.2378 13.1375 13.377C14.0006 12.5161 14.6835 11.4919 15.1463 10.3642C15.609 9.23646 15.8425 8.02782 15.833 6.80889V6.42902C15.833 6.40403 15.8448 6.38053 15.8647 6.36546C16.4017 5.96002 16.874 5.47597 17.2657 4.92998Z" fill="#1197C2"/>
</svg>
