<svg width="56" height="54" viewBox="0 0 56 54" fill="none" xmlns="http://www.w3.org/2000/svg">
<path d="M55.1252 24.9254C55.9346 23.6956 56.1945 22.2203 55.8494 20.8147C55.5042 19.4092 54.5814 18.1849 53.2781 17.4035C52.7052 17.0583 52.2454 16.5732 51.9492 16.0013C51.6531 15.4294 51.5318 14.7928 51.5988 14.1611C51.7541 12.7266 51.2997 11.2926 50.3328 10.1654C49.3658 9.03829 47.963 8.30748 46.4241 8.12918C45.7472 8.04957 45.1069 7.79846 44.5731 7.4033C44.0394 7.00814 43.6328 6.48415 43.3978 5.88863C42.8682 4.53361 41.7896 3.4249 40.3924 2.79944C38.9952 2.17397 37.3903 2.08136 35.9206 2.5414C35.2732 2.74264 34.5787 2.77444 33.9132 2.6333C33.2476 2.49217 32.6367 2.18354 32.1472 1.7412C31.0377 0.733857 29.5484 0.169922 27.9976 0.169922C26.4468 0.169922 24.9575 0.733857 23.848 1.7412C23.3585 2.18354 22.7475 2.49217 22.082 2.6333C21.4164 2.77444 20.722 2.74264 20.0745 2.5414C18.6049 2.08136 17 2.17397 15.6028 2.79944C14.2056 3.4249 13.1269 4.53361 12.5974 5.88863C12.3624 6.48415 11.9558 7.00814 11.4221 7.4033C10.8883 7.79846 10.248 8.04957 9.57104 8.12918C8.03247 8.30805 6.63015 9.03922 5.6637 10.1665C4.69726 11.2937 4.24333 12.7276 4.39891 14.1619C4.46591 14.7936 4.34468 15.4302 4.04849 16.0021C3.7523 16.574 3.29257 17.0591 2.71962 17.4043C1.4165 18.1858 0.493853 19.4101 0.148858 20.8157C-0.196138 22.2212 0.0638837 23.6965 0.873354 24.9262C1.22895 25.4685 1.41706 26.0914 1.41706 26.7266C1.41706 27.3618 1.22895 27.9847 0.873354 28.527C0.0638837 29.7567 -0.196138 31.232 0.148858 32.6375C0.493853 34.0431 1.4165 35.2674 2.71962 36.0489C3.29201 36.3939 3.75139 36.8785 4.04755 37.4497C4.34371 38.021 4.46526 38.657 4.39891 39.2881C4.24361 40.7226 4.698 42.1566 5.66496 43.2838C6.63192 44.4109 8.03475 45.1417 9.57363 45.32C10.2505 45.3996 10.8909 45.6507 11.4246 46.0459C11.9584 46.4411 12.365 46.965 12.6 47.5606C13.0152 48.6248 13.7724 49.5447 14.7688 50.1955C15.7653 50.8464 16.9528 51.1967 18.1706 51.1991C18.8166 51.1984 19.4583 51.1011 20.0711 50.911C20.7185 50.7098 21.413 50.678 22.0785 50.8191C22.7441 50.9602 23.355 51.2689 23.8445 51.7112C24.954 52.7185 26.4433 53.2825 27.9941 53.2825C29.5449 53.2825 31.0342 52.7185 32.1437 51.7112C32.6332 51.2689 33.2442 50.9602 33.9097 50.8191C34.5753 50.678 35.2698 50.7098 35.9172 50.911C37.3868 51.371 38.9918 51.2784 40.389 50.653C41.7861 50.0275 42.8648 48.9188 43.3943 47.5638C43.6293 46.9682 44.0359 46.4443 44.5697 46.0491C45.1034 45.6539 45.7438 45.4028 46.4207 45.3232C47.9595 45.1449 49.3624 44.4141 50.3293 43.287C51.2963 42.1598 51.7507 40.7258 51.5954 39.2913C51.5284 38.6596 51.6496 38.023 51.9458 37.4511C52.242 36.8792 52.7017 36.3941 53.2747 36.0489C54.5779 35.2675 55.5008 34.0432 55.8459 32.6377C56.1911 31.2321 55.9312 29.7568 55.1218 28.527C54.7663 27.9847 54.5782 27.3618 54.5782 26.7266C54.5782 26.0914 54.7663 25.4685 55.1218 24.9262L55.1252 24.9254ZM53.2179 29.5993C53.7245 30.3689 53.8872 31.2923 53.6712 32.172C53.4552 33.0517 52.8776 33.8179 52.0619 34.3069C51.1465 34.8583 50.4119 35.6332 49.9386 36.5468C49.4652 37.4604 49.2713 38.4774 49.3781 39.4866C49.4755 40.3843 49.1913 41.2819 48.5862 41.9873C47.9811 42.6928 47.1032 43.1503 46.1401 43.2619C45.058 43.3896 44.0346 43.7916 43.1819 44.4239C42.3291 45.0562 41.6799 45.8944 41.3053 46.8468C40.974 47.6949 40.2989 48.3889 39.4244 48.7804C38.5499 49.1719 37.5454 49.2298 36.6255 48.9417C35.5915 48.6211 34.4826 48.571 33.42 48.7968C32.3573 49.0226 31.382 49.5156 30.6004 50.222C29.9061 50.8527 28.9739 51.2057 28.0032 51.2057C27.0325 51.2057 26.1003 50.8527 25.4059 50.222C24.6242 49.5159 23.6488 49.023 22.5863 48.7972C21.5237 48.5714 20.4149 48.6214 19.3808 48.9417C18.461 49.2298 17.4564 49.1719 16.5819 48.7804C15.7074 48.3889 15.0323 47.6949 14.701 46.8468C14.3264 45.8944 13.6772 45.0562 12.8245 44.4239C11.9718 43.7916 10.9483 43.3896 9.86627 43.2619C8.90317 43.1503 8.02525 42.6928 7.42016 41.9873C6.81508 41.2819 6.53084 40.3843 6.6282 39.4866C6.73502 38.4774 6.54114 37.4604 6.06778 36.5468C5.59443 35.6332 4.85984 34.8583 3.94444 34.3069C3.12874 33.8179 2.55115 33.0517 2.33514 32.172C2.11913 31.2923 2.28183 30.3689 2.78848 29.5993C3.35583 28.7332 3.65592 27.7387 3.65592 26.7246C3.65592 25.7105 3.35583 24.716 2.78848 23.8499C2.28183 23.0803 2.11913 22.1569 2.33514 21.2772C2.55115 20.3975 3.12874 19.6313 3.94444 19.1423C4.85984 18.5909 5.59443 17.816 6.06778 16.9024C6.54114 15.9888 6.73502 14.9718 6.6282 13.9626C6.53084 13.0649 6.81508 12.1673 7.42016 11.4619C8.02525 10.7564 8.90317 10.2989 9.86627 10.1873C10.9483 10.0596 11.9718 9.65757 12.8245 9.02527C13.6772 8.39298 14.3264 7.55477 14.701 6.6024C15.0322 5.75524 15.7064 5.06194 16.5797 4.67041C17.453 4.27888 18.4564 4.22013 19.3756 4.50668C20.4097 4.82729 21.5186 4.87743 22.5812 4.65163C23.6438 4.42583 24.6192 3.93277 25.4008 3.22637C26.0951 2.59572 27.0273 2.24265 27.998 2.24265C28.9687 2.24265 29.9009 2.59572 30.5953 3.22637C31.3768 3.93277 32.3522 4.42583 33.4148 4.65163C34.4774 4.87743 35.5864 4.82729 36.6204 4.50668C37.5402 4.21864 38.5447 4.27654 39.4192 4.66801C40.2938 5.05949 40.9688 5.75347 41.3002 6.6016C41.6748 7.55397 42.324 8.39218 43.1767 9.02447C44.0294 9.65677 45.0528 10.0588 46.1349 10.1865C47.098 10.2981 47.9759 10.7556 48.581 11.4611C49.1861 12.1665 49.4703 13.0641 49.373 13.9618C49.2662 14.971 49.46 15.988 49.9334 16.9016C50.4068 17.8152 51.1413 18.5901 52.0567 19.1415C52.8741 19.6299 53.4532 20.3965 53.6701 21.277C53.887 22.1575 53.7243 23.0819 53.217 23.8523C52.6502 24.7181 52.3503 25.7122 52.3503 26.7258C52.3503 27.7394 52.6502 28.7335 53.217 29.5993H53.2179Z" fill="white"/>
<path d="M33.2312 7.56881C32.9535 7.52434 32.668 7.57893 32.4317 7.72166C32.1954 7.8644 32.0257 8.08477 31.9566 8.33875C31.8874 8.59272 31.9239 8.8616 32.0587 9.09166C32.1935 9.32171 32.4168 9.49601 32.6838 9.57971C37.1753 10.641 41.0955 13.1901 43.7084 16.7484C46.3212 20.3067 47.447 24.6293 46.8743 28.9047C46.3016 33.18 44.0698 37.1139 40.5979 39.9677C37.1261 42.8215 32.6531 44.3989 28.0189 44.4036C23.3846 44.4083 18.9079 42.8401 15.4293 39.9934C11.9508 37.1467 9.70969 33.2173 9.12688 28.9432C8.54407 24.669 9.65965 20.3441 12.2641 16.7805C14.8686 13.2169 18.7828 10.6598 23.2717 9.58932C23.5379 9.50458 23.76 9.32972 23.8937 9.09957C24.0275 8.86943 24.063 8.60089 23.9933 8.34746C23.9236 8.09404 23.7538 7.87432 23.5177 7.73209C23.2815 7.58987 22.9964 7.53557 22.7191 7.58001C17.7029 8.77548 13.3287 11.6323 10.4179 15.614C7.50708 19.5958 6.25997 24.4284 6.91075 29.2045C7.56152 33.9806 10.0654 38.3715 13.9522 41.5527C17.839 44.7339 22.8413 46.4865 28.0197 46.4814C33.1981 46.4762 38.1964 44.7138 42.0759 41.5249C45.9554 38.336 48.4493 33.9401 49.0891 29.1628C49.7289 24.3854 48.4708 19.5552 45.5508 15.5793C42.6309 11.6033 38.2502 8.75514 33.2312 7.56961V7.56881Z" fill="white"/>
<path d="M16.7835 25.7273C16.6541 25.6489 16.5087 25.5963 16.3563 25.5727C16.204 25.5491 16.0481 25.5551 15.8984 25.5903C15.7486 25.6255 15.6084 25.6891 15.4864 25.7772C15.3644 25.8652 15.2634 25.9758 15.1896 26.1019C15.1158 26.2281 15.071 26.367 15.0578 26.5101C15.0446 26.6531 15.0634 26.7972 15.1131 26.9331C15.1627 27.0691 15.242 27.194 15.3461 27.3001C15.4502 27.4061 15.5768 27.491 15.7179 27.5493C18.6572 29.0431 21.0264 31.3469 22.4996 34.1437C22.8687 34.8497 23.1769 35.5818 23.4215 36.3331C23.4927 36.5445 23.6347 36.7292 23.8268 36.8603C24.0188 36.9915 24.2509 37.0622 24.4892 37.0622C24.7275 37.0622 24.9596 36.9915 25.1516 36.8603C25.3437 36.7292 25.4857 36.5445 25.5569 36.3331C26.3469 33.9041 27.4868 31.5857 28.9456 29.441C29.5149 29.61 30.0998 29.7295 30.6929 29.7979C31.0798 29.8422 31.4693 29.8644 31.8592 29.8643C33.8649 29.8608 35.8196 29.2762 37.4513 28.1918C39.0829 27.1074 40.3105 25.5772 40.9632 23.814C41.327 22.8342 41.9916 21.9749 42.8748 21.3422C43.0019 21.2493 43.1058 21.1318 43.1794 20.9979C43.2529 20.8641 43.2944 20.717 43.301 20.5668C43.3075 20.4166 43.279 20.2668 43.2173 20.1279C43.1556 19.9889 43.0623 19.864 42.9437 19.7618C41.6399 18.6512 40.0319 17.8965 38.2966 17.5806C36.5612 17.2647 34.7658 17.4 33.1078 17.9715C31.4498 18.543 29.9935 19.5286 28.8991 20.8199C27.8047 22.1111 27.1146 23.658 26.9048 25.2904C26.7815 26.298 26.8364 27.3176 27.0675 28.3087C27.0718 28.3271 27.0623 28.2903 27.0675 28.3087C26.4204 29.2627 25.831 30.2496 25.3022 31.2646C24.9894 31.8621 24.6979 32.47 24.4276 33.0883C22.7441 29.9688 20.0775 27.4007 16.7835 25.7265V25.7273ZM29.1212 25.532C29.3484 23.7212 30.5087 27.6773 30.2841 27.6317C31.1059 26.6068 32.0011 25.6345 32.9635 24.7214C33.1437 24.5206 33.2359 24.2641 33.2218 24.0029C33.2078 23.7418 33.0884 23.4951 32.8875 23.3121C32.6866 23.1291 32.4189 23.0231 32.1378 23.0153C31.8566 23.0074 31.5826 23.0983 31.3703 23.2699C31.3703 23.2699 29.116 25.5712 29.1212 25.5312V25.532Z" fill="white"/>
<path d="M6.89459 21.8597C6.84531 21.9955 6.82678 22.1394 6.84015 22.2823C6.85353 22.4251 6.89852 22.5638 6.9723 22.6897C7.04609 22.8156 7.14708 22.926 7.26892 23.0139C7.39077 23.1018 7.53084 23.1653 7.68036 23.2005C7.82987 23.2357 7.98559 23.2417 8.13774 23.2183C8.28989 23.1949 8.43519 23.1425 8.56452 23.0644C8.69385 22.9862 8.80441 22.8841 8.88926 22.7644C8.97411 22.6446 9.03142 22.5099 9.0576 22.3686C10.1995 18.1932 12.9416 14.5489 16.7691 12.12C20.5966 9.69117 25.2461 8.64479 29.8447 9.17736C34.4433 9.70994 38.6747 11.7848 41.7442 15.0125C44.8137 18.2401 46.5103 22.3984 46.5154 26.7067C46.5205 31.0149 44.8337 35.1767 41.7718 38.4106C38.7099 41.6445 34.4835 43.728 29.8861 44.27C25.2888 44.8119 20.6368 43.775 16.8036 41.354C12.9704 38.9329 10.2197 35.2942 9.06793 31.1212C9.04172 30.9798 8.98434 30.8449 8.89938 30.7252C8.81442 30.6054 8.70373 30.5032 8.57426 30.4251C8.44479 30.347 8.29934 30.2947 8.14706 30.2714C7.99477 30.2481 7.83895 30.2543 7.68938 30.2897C7.53981 30.325 7.39973 30.3888 7.27794 30.4769C7.15615 30.565 7.05529 30.6756 6.98169 30.8018C6.9081 30.9279 6.86336 31.0668 6.8503 31.2097C6.83723 31.3527 6.85612 31.4966 6.90578 31.6325C8.19167 36.2959 11.2646 40.3626 15.5475 43.0686C19.8304 45.7747 25.0287 46.9341 30.166 46.3291C35.3034 45.7241 40.0265 43.3963 43.4483 39.7829C46.8701 36.1694 48.7553 31.5189 48.7498 26.7047C48.7443 21.8904 46.8485 17.2437 43.4184 13.637C39.9883 10.0303 35.2599 7.71188 30.1212 7.11704C24.9824 6.5222 19.7868 7.69189 15.5101 10.4065C11.2334 13.121 8.1698 17.1937 6.89459 21.8597Z" fill="white"/>
</svg>
