<svg width="24" height="22" viewBox="0 0 24 22" fill="none" xmlns="http://www.w3.org/2000/svg">
<path d="M21.3075 2.97747C20.1665 1.80091 18.6194 1.14046 17.0066 1.14141C15.3938 1.14235 13.8475 1.80463 12.7077 2.98253L12.1075 3.60217L11.4974 2.9724C10.94 2.36122 10.2695 1.87178 9.52546 1.53309C8.78145 1.19441 7.97915 1.01337 7.16611 1.00071C6.35307 0.988054 5.54583 1.14403 4.79227 1.4594C4.03871 1.77477 3.35416 2.24312 2.77918 2.83666C2.20421 3.43021 1.75052 4.13688 1.44502 4.91479C1.13952 5.69269 0.988428 6.526 1.00069 7.36531C1.01295 8.20462 1.18832 9.03284 1.51641 9.80088C1.8445 10.5689 2.31862 11.2611 2.91067 11.8365L11.6552 20.8627C11.7128 20.9234 11.7815 20.9716 11.8573 21.0047C11.933 21.0378 12.0144 21.0551 12.0966 21.0555C12.1789 21.056 12.2604 21.0397 12.3365 21.0074C12.4126 20.9752 12.4818 20.9278 12.5401 20.8678L21.3026 11.8559C22.4429 10.6782 23.0842 9.08167 23.0859 7.41652C23.0876 5.75136 22.4495 4.15347 21.3116 2.97325L21.3075 2.97747ZM20.4137 10.9417L12.0927 19.5002L3.79143 10.9299C3.33688 10.4694 2.97521 9.9206 2.72734 9.31506C2.47946 8.70951 2.35028 8.05925 2.34726 7.40187C2.34424 6.74448 2.46744 6.093 2.70974 5.48505C2.95205 4.8771 3.30865 4.32475 3.75895 3.85991C4.20925 3.39506 4.74433 3.02694 5.33325 2.7768C5.92217 2.52667 6.55325 2.39949 7.19007 2.40261C7.82688 2.40572 8.45678 2.53908 9.04338 2.79497C9.62998 3.05085 10.1616 3.42419 10.6076 3.89342L11.6601 4.97991C11.7184 5.04056 11.7877 5.0887 11.864 5.12155C11.9404 5.1544 12.0223 5.17131 12.105 5.17131C12.1877 5.17131 12.2696 5.1544 12.346 5.12155C12.4224 5.0887 12.4916 5.04056 12.5499 4.97991L13.5926 3.90356C14.5049 3.0098 15.7193 2.51914 16.977 2.53614C18.2346 2.55314 19.4362 3.07644 20.3255 3.99456C21.2149 4.91267 21.7218 6.15301 21.7383 7.45131C21.7548 8.7496 21.2795 10.0032 20.4137 10.945V10.9417Z" fill="white" stroke="white" stroke-width="0.3"/>
</svg>
